[img]http://img94.imageshack.us/img94/4805/posteryo.jpg[/img]
[code]
General 
Complete name : Justin Bieber Never Say Never 2011 BRRip 720p x264 AC3-Freebee.mkv 
Format : Matroska 
File size : 2.80 GiB 
Duration : 1h 45mn 
Overall bit rate : 3 815 Kbps 
Encoded date : UTC 2011-05-12 17:42:44 

Video 
ID : 1 
Format : AVC 
Format/Info : Advanced Video Codec 
Format profile : High@L3.1 
Format settings, CABAC : Yes 
Format settings, ReFrames : 3 frames 
Format settings, GOP : M=1, N=48 
Codec ID : V_MPEG4/ISO/AVC 
Duration : 1h 45mn 
Bit rate : 3 366 Kbps 
Width : 1 280 pixels 
Height : 720 pixels 
Display aspect ratio : 16:9 
Frame rate : 23.976 fps 
Color space : YUV 
Chroma subsampling : 4:2:0 
Bit depth : 8 bits 
Scan type : Progressive 
Bits/(Pixel*Frame) : 0.152 
Stream size : 2.42 GiB (86%) 
Writing library : x264 core 115 r1947 b5a8ad7 

Encoding settings : cabac=1 / ref=4 / deblock=1:0:0 / analyse=0x3:0x133 / me=umh
 / subme=9 / psy=1 / psy_rd=1.00:0.30 / mixed_ref=1 / me_range=48 / chroma_me=1
 / trellis=2 / 8x8dct=1 / cqm=0 / deadzone=21,11 / fast_pskip=0
 / chroma_qp_offset=-4 / threads=9 / sliced_threads=0 / nr=0 / decimate=0
 / interlaced=0 / bluray_compat=0 / constrained_intra=0 / bframes=3 / b_pyramid=1
 / b_adapt=2 / b_bias=0 / direct=3 / weightb=1 / open_gop=0 / weightp=2
 / keyint=250 / keyint_min=23 / scenecut=40 / intra_refresh=0 / rc_lookahead=60
 / rc=2pass / mbtree=1 / bitrate=3366 / ratetol=1.0 / qcomp=0.60 / qpmin=0
 / qpmax=69 / qpstep=4 / cplxblur=20.0 / qblur=0.5 / ip_ratio=1.40 / aq=2:1.00 


Color primaries : BT.709-5, BT.1361, IEC 61966-2-4, SMPTE RP177 
Transfer characteristics : BT.709-5, BT.1361 
Matrix coefficients : BT.709-5, BT.1361, IEC 61966-2-4 709, SMPTE RP177 

Audio 
ID : 2 
Format : AC-3 
Format/Info : Audio Coding 3 
Mode extension : CM (complete main) 
Codec ID : A_AC3 
Duration : 1h 45mn 
Bit rate mode : Constant 
Bit rate : 448 Kbps 
Channel(s) : 6 channels 
Channel positions : Front: L C R, Side: L R, LFE 
Sampling rate : 48.0 KHz 
Bit depth : 16 bits 
Compression mode : Lossy 
Stream size : 337 MiB (12%) 
Language : English 

Language.............: English
Subtitle.............: None
Imdb-Rating..........: 1.2/10
Imdb.................: http://www.imdb.com/title/tt1702443/
Video-Source.........: CHD....Thanks!
Audio-Source.........: CHD....Thanks!
Encoder..............: Freebee269
Plot.................: Follows Justin Bieber with some footage of performances from his 2010 concert tour. 
[/code]
Screens:
[img]http://img197.imageshack.us/img197/3026/93214253.png[/img]
[img]http://img804.imageshack.us/img804/2897/84125685.png[/img]
[img]http://img59.imageshack.us/img59/4444/34316528.png[/img]
[img]http://img846.imageshack.us/img846/9370/74154580.png[/img]
[img]http://img707.imageshack.us/img707/4010/80206565.png[/img]
[img]http://img151.imageshack.us/img151/1091/38938497.png[/img]